HIERARCHY
ROOT Pelvis
{
	OFFSET 0.000000 0.000000 0.000000
	CHANNELS 6 Xposition Yposition Zposition Xrotation Yrotation Zrotation
	JOINT LeftUpLeg_virtual
	{
		OFFSET 0.000000 0.000000 0.000000
		CHANNELS 3 Xrotation Yrotation Zrotation
		JOINT LeftUpLeg
		{
			OFFSET 18.735201 -5.666702 -4.541200
			CHANNELS 3 Xrotation Yrotation Zrotation
			JOINT LeftLeg
			{
				OFFSET -0.021200 -31.938179 0.493100
				CHANNELS 3 Xrotation Yrotation Zrotation
				JOINT LeftFoot
				{
					OFFSET 0.021200 -31.938179 -4.336299
					CHANNELS 3 Xrotation Yrotation Zrotation
					JOINT LeftToeBase
					{
						OFFSET 0.943001 -26.722000 15.023500
						CHANNELS 3 Xrotation Yrotation Zrotation
						End Site
						{
							OFFSET 0 0 0
						}
					}
				}
			}
		}
	}
	JOINT RightUpLeg_virtual
	{
		OFFSET 0.000000 0.000000 0.000000
		CHANNELS 3 Xrotation Yrotation Zrotation
		JOINT RightUpLeg
		{
			OFFSET -18.735201 -5.666702 -4.541200
			CHANNELS 3 Xrotation Yrotation Zrotation
			JOINT RightLeg
			{
				OFFSET 0.018946 -31.938133 0.493100
				CHANNELS 3 Xrotation Yrotation Zrotation
				JOINT RightFoot
				{
					OFFSET -0.018946 -31.938126 -4.336299
					CHANNELS 3 Xrotation Yrotation Zrotation
					JOINT RightToeBase
					{
						OFFSET -0.943001 -26.722004 15.023500
						CHANNELS 3 Xrotation Yrotation Zrotation
						End Site
						{
							OFFSET 0 0 0
						}
					}
				}
			}
		}
	}
	JOINT Hips_virtual
	{
		OFFSET 0.000000 0.000000 0.000000
		CHANNELS 3 Xrotation Yrotation Zrotation
		JOINT Hips
		{
			OFFSET -0.000000 -0.000000 -0.000000
			CHANNELS 3 Xrotation Yrotation Zrotation
			JOINT Spine
			{
				OFFSET 0.000000 10.199997 -0.299500
				CHANNELS 3 Xrotation Yrotation Zrotation
				JOINT Spine1
				{
					OFFSET 0.000000 11.900002 -1.516600
					CHANNELS 3 Xrotation Yrotation Zrotation
					JOINT Spine2
					{
						OFFSET 0.000000 13.600006 -2.842500
						CHANNELS 3 Xrotation Yrotation Zrotation
						JOINT Neck_virtual
						{
							OFFSET 0.000000 0.000000 0.000000
							CHANNELS 3 Xrotation Yrotation Zrotation
							JOINT Neck
							{
								OFFSET 0.000000 9.624100 -2.890100
								CHANNELS 3 Xrotation Yrotation Zrotation
								JOINT Head
								{
									OFFSET 0.000000 14.068802 -1.351900
									CHANNELS 3 Xrotation Yrotation Zrotation
									End Site
									{
										OFFSET 0 0 0
									}
								}
							}
						}
						JOINT LeftShoulder_virtual
						{
							OFFSET 0.000000 0.000000 0.000000
							CHANNELS 3 Xrotation Yrotation Zrotation
							JOINT LeftShoulder
							{
								OFFSET 15.263000 10.923401 -0.547700
								CHANNELS 3 Xrotation Yrotation Zrotation
								JOINT LeftArm
								{
									OFFSET 25.438599 -2.830597 -13.032500
									CHANNELS 3 Xrotation Yrotation Zrotation
									JOINT LeftForeArm
									{
										OFFSET 29.960503 0.000000 0.000000
										CHANNELS 3 Xrotation Yrotation Zrotation
										JOINT LeftHand
										{
											OFFSET 27.849251 0.000000 0.000000
											CHANNELS 3 Xrotation Yrotation Zrotation
											End Site
											{
												OFFSET 0 0 0
											}
										}
									}
								}
							}
						}
						JOINT RightShoulder_virtual
						{
							OFFSET 0.000000 0.000000 0.000000
							CHANNELS 3 Xrotation Yrotation Zrotation
							JOINT RightShoulder
							{
								OFFSET -15.263000 10.923401 -0.547700
								CHANNELS 3 Xrotation Yrotation Zrotation
								JOINT RightArm
								{
									OFFSET -25.438599 -2.830597 -13.032500
									CHANNELS 3 Xrotation Yrotation Zrotation
									JOINT RightForeArm
									{
										OFFSET -29.960503 0.000000 0.000000
										CHANNELS 3 Xrotation Yrotation Zrotation
										JOINT RightHand
										{
											OFFSET -27.849251 0.000000 0.000000
											CHANNELS 3 Xrotation Yrotation Zrotation
											End Site
											{
												OFFSET 0 0 0
											}
										}
									}
								}
							}
						}
					}
				}
			}
		}
	}
}
MOTION
Frames: 10
Frame Time: 0.03333333
-0.455063 28.197453 17.008900 0.000000 0.000000 0.000000 74.533729 1.762415 -7.294930 0.780009 6.581752 -8.016101 21.559492 2.498178 5.106813 -18.485735 4.749882 0.279845 0.000000 0.000000 0.000000 75.013543 3.420546 -9.382002 -6.760420 -6.342495 -8.053365 29.418680 -2.271450 -5.684141 1.728480 28.338489 18.315212 0.000000 0.000000 0.000000 73.569231 2.875848 -7.739075 -1.238821 -0.106888 -0.071470 9.785714 -6.562991 2.380339 -3.849950 0.780376 -3.531777 0.000000 0.000000 0.000000 -7.182386 1.304535 -1.363308 3.933065 -4.318505 0.538176 0.000000 0.000000 0.000000 -3.545305 1.262552 1.695154 7.195875 -4.794506 -12.465111 -5.636518 -54.846556 -6.379851 -7.210050 -36.378680 -16.456605 0.000000 0.000000 0.000000 -5.535591 0.848126 -3.742483 0.187016 21.542575 23.839037 -1.724226 26.796430 20.445058 31.863966 50.841336 -34.330768 0.000000 0.000000 0.000000 
-0.454792 28.254093 16.724251 0.000000 0.000000 0.000000 74.402815 1.659650 -7.371523 0.177708 6.810869 -7.824116 22.313369 2.824131 5.158840 -17.369163 4.921427 0.708637 0.000000 0.000000 0.000000 75.111126 3.261596 -9.430433 -6.929540 -6.645337 -7.830654 29.404852 -2.391703 -5.624813 1.155443 27.919874 18.215884 0.000000 0.000000 0.000000 73.587065 2.609048 -7.638513 -1.241726 -0.133084 -0.079355 9.791972 -6.648811 2.303224 -3.985931 0.693222 -3.443491 0.000000 0.000000 0.000000 -6.784572 1.276471 -1.382597 3.829789 -4.317837 0.599636 0.000000 0.000000 0.000000 -3.461415 1.253819 1.669014 7.229629 -4.673089 -12.318873 -6.100593 -54.755274 -6.370924 -7.060321 -35.991122 -16.441066 0.000000 0.000000 0.000000 -6.038312 0.797950 -3.612966 0.522889 21.553813 23.666855 -2.045936 26.090303 20.222407 32.670888 51.580192 -34.784968 0.000000 0.000000 0.000000 
-0.459791 28.402599 16.329084 0.000000 0.000000 0.000000 74.141362 1.291126 -7.230436 -0.297045 6.466591 -7.696818 22.601786 3.077606 5.571490 -16.783481 5.064869 1.338388 0.000000 0.000000 0.000000 75.017798 2.957488 -9.297285 -6.906298 -6.735430 -7.546507 29.357523 -2.370222 -5.654936 0.581861 27.541838 18.104905 0.000000 0.000000 0.000000 73.427696 2.273627 -7.450851 -1.249077 -0.139660 -0.083784 9.811043 -6.703426 2.079034 -4.024758 0.600228 -3.311639 0.000000 0.000000 0.000000 -6.267941 1.240622 -1.428804 3.742590 -4.303146 0.690564 0.000000 0.000000 0.000000 -3.243456 1.261515 1.643286 7.260519 -4.725058 -11.568735 -6.486979 -54.411404 -6.656977 -6.940072 -36.045531 -16.688951 0.000000 0.000000 0.000000 -6.436501 0.778750 -3.452988 0.779408 22.180945 23.491314 -2.334576 23.706036 19.485012 34.403410 53.403402 -35.779669 0.000000 0.000000 0.000000 
-0.490555 28.622997 15.935223 0.000000 0.000000 0.000000 73.935261 0.666253 -6.911878 -0.387396 5.583545 -7.621759 22.018440 3.183215 6.232753 -16.633481 5.069681 1.705410 0.000000 0.000000 0.000000 74.833069 2.445682 -8.964881 -6.750847 -6.608017 -7.278887 29.324703 -2.114990 -5.669983 0.242983 27.373069 18.271490 0.000000 0.000000 0.000000 73.180464 1.922479 -7.248721 -1.248336 -0.125611 -0.080921 9.800673 -6.737319 1.765748 -3.955582 0.493522 -3.153678 0.000000 0.000000 0.000000 -5.703948 1.208583 -1.500332 3.671735 -4.278647 0.799527 0.000000 0.000000 0.000000 -2.874517 1.288013 1.612633 7.285535 -4.951638 -10.303261 -6.876609 -53.776326 -7.321428 -6.893420 -36.700748 -17.215234 0.000000 0.000000 0.000000 -6.681177 0.785799 -3.282340 0.968298 23.412529 23.250242 -2.482621 19.911260 18.234479 37.147906 56.147338 -37.445074 0.000000 0.000000 0.000000 
-0.540094 28.926380 15.544136 0.000000 0.000000 0.000000 73.932741 -0.062573 -6.556490 -0.093348 4.569520 -7.563872 20.498888 3.278620 6.904993 -16.256504 5.153534 1.795214 0.000000 0.000000 0.000000 74.783386 1.773962 -8.566060 -6.648168 -6.442590 -7.081565 29.432569 -1.661978 -5.582274 0.302138 27.416791 18.740180 0.000000 0.000000 0.000000 73.079725 1.522384 -7.048427 -1.255527 -0.099865 -0.076651 9.697234 -6.781782 1.432399 -3.781727 0.368182 -2.990492 0.000000 0.000000 0.000000 -5.096511 1.210264 -1.580083 3.613995 -4.247272 0.918335 0.000000 0.000000 0.000000 -2.405925 1.343470 1.569760 7.326327 -5.325300 -8.602678 -7.520942 -52.821360 -8.356910 -6.954838 -37.961618 -17.981487 0.000000 0.000000 0.000000 -6.785731 0.825267 -3.127746 1.125810 25.115340 22.829279 -2.602729 15.248915 16.695299 40.849555 59.362253 -39.771918 0.000000 0.000000 0.000000 
-0.587113 29.292076 15.201916 0.000000 0.000000 0.000000 74.186585 -0.722951 -6.289458 0.302731 3.659679 -7.560543 18.450858 3.498568 7.467716 -15.461745 5.546393 1.911886 0.000000 0.000000 0.000000 75.097390 1.100074 -8.294244 -6.676229 -6.444259 -6.917558 29.702894 -1.169692 -5.370490 0.725848 27.492005 19.205167 0.000000 0.000000 0.000000 73.336185 1.135188 -6.932031 -1.265683 -0.081014 -0.075077 9.452613 -6.888714 1.127148 -3.506385 0.218978 -2.828678 0.000000 0.000000 0.000000 -4.458144 1.256017 -1.628959 3.574667 -4.211043 1.045689 0.000000 0.000000 0.000000 -1.889188 1.438680 1.508307 7.388303 -5.775501 -6.587809 -8.382331 -51.514462 -9.517898 -7.210259 -39.904834 -18.995362 0.000000 0.000000 0.000000 -6.803063 0.893522 -3.011669 1.299131 27.121884 22.123391 -2.916146 10.325279 15.001348 45.295253 62.542130 -42.672505 0.000000 0.000000 0.000000 
-0.630066 29.762932 14.766842 0.000000 0.000000 0.000000 74.734072 -1.173697 -6.196993 0.702693 2.786179 -7.697736 16.136832 3.824441 7.958138 -14.452663 6.264797 2.165556 0.000000 0.000000 0.000000 75.850521 0.548736 -8.267592 -6.888910 -6.687991 -6.750528 30.111729 -0.811955 -5.068973 1.271816 27.413690 19.415890 0.000000 0.000000 0.000000 73.988878 0.772287 -6.900196 -1.269143 -0.071931 -0.087464 9.125888 -7.062399 0.844889 -3.126028 0.080050 -2.676498 0.000000 0.000000 0.000000 -3.778412 1.367807 -1.623806 3.547919 -4.158307 1.178042 0.000000 0.000000 0.000000 -1.355453 1.583138 1.437705 7.490056 -6.226264 -4.306594 -9.219744 -49.848824 -10.493543 -7.690369 -42.542110 -20.261471 0.000000 0.000000 0.000000 -6.772266 0.996456 -2.923140 1.505494 29.241450 21.075983 -3.593203 5.693797 13.325342 50.101459 65.331026 -45.902454 0.000000 0.000000 0.000000 
-0.710773 30.388168 14.179684 0.000000 0.000000 0.000000 75.596445 -1.300838 -6.328749 1.088983 1.918571 -8.007194 13.809341 4.219069 8.363272 -13.837512 7.177894 2.507740 0.000000 0.000000 0.000000 76.965877 0.308894 -8.513752 -7.270894 -6.932690 -6.490239 30.747114 -0.510908 -4.902809 1.701998 27.165592 19.377822 0.000000 0.000000 0.000000 74.992929 0.552453 -6.985767 -1.275377 -0.064811 -0.118056 8.809998 -7.277778 0.540981 -2.645213 -0.004327 -2.530470 0.000000 0.000000 0.000000 -3.061798 1.565581 -1.551666 3.521767 -4.070110 1.310183 0.000000 0.000000 0.000000 -0.830434 1.788333 1.370881 7.612090 -6.723200 -1.875247 -10.011675 -48.040877 -11.152193 -8.351902 -45.587937 -21.736568 0.000000 0.000000 0.000000 -6.658168 1.155847 -2.850347 1.693622 31.372288 19.791393 -4.474204 1.553557 11.620925 54.434770 67.503361 -48.731060 0.000000 0.000000 0.000000 
-0.855336 31.134159 13.354828 0.000000 0.000000 0.000000 76.746594 -1.049770 -6.677794 1.427674 0.996997 -8.471142 11.745148 4.664591 8.646015 -14.471936 8.020953 2.872825 0.000000 0.000000 0.000000 78.348847 0.559813 -8.986967 -7.705632 -6.792913 -6.096558 31.233137 -0.055315 -5.069634 1.350253 26.879043 19.441548 0.000000 0.000000 0.000000 76.222896 0.636194 -7.214207 -1.277205 -0.062325 -0.142713 8.628230 -7.476667 0.176165 -2.057864 0.006715 -2.389730 0.000000 0.000000 0.000000 -2.348323 1.862550 -1.423742 3.494261 -3.928177 1.437922 0.000000 0.000000 0.000000 -0.292807 2.077743 1.326042 7.714258 -7.360068 0.569421 -10.658357 -46.275662 -11.307199 -9.128865 -48.555931 -23.361875 0.000000 0.000000 0.000000 -6.386006 1.388919 -2.795141 1.803470 33.497293 18.482128 -5.352145 -2.363736 9.555343 58.135729 69.283711 -51.015383 0.000000 0.000000 0.000000 
-1.001558 31.994007 12.309124 0.000000 0.000000 0.000000 78.122761 -0.417438 -7.227355 1.431698 0.125199 -9.004027 10.427266 5.189792 8.670153 -16.185340 8.725041 3.441570 0.000000 0.000000 0.000000 79.887907 1.282559 -9.597481 -8.152707 -6.173992 -5.711291 31.351449 0.680250 -5.470514 -0.311396 26.637384 20.027093 0.000000 0.000000 0.000000 77.564243 1.124086 -7.615582 -1.276696 -0.078284 -0.147594 8.677451 -7.595264 -0.252795 -1.365978 0.126954 -2.272962 0.000000 0.000000 0.000000 -1.679283 2.248726 -1.277097 3.453114 -3.716407 1.553254 0.000000 0.000000 0.000000 0.263995 2.440882 1.324181 7.787030 -8.230770 2.951176 -11.177051 -44.587355 -10.949104 -9.829336 -51.049035 -24.962904 0.000000 0.000000 0.000000 -5.919814 1.690645 -2.760501 1.749486 35.561380 17.423953 -6.231405 -6.410124 6.916918 61.961331 71.093404 -53.506479 0.000000 0.000000 0.000000 
